<svg width="24" height="24" viewBox="0 0 24 24" fill="none" xmlns="http://www.w3.org/2000/svg">
<path fill-rule="evenodd" clip-rule="evenodd" d="M9.82695 19.2465C8.49733 19.2465 7.23356 18.7117 6.26846 17.741C4.35112 15.8116 4.27243 12.7525 6.09263 10.9211L12.0229 4.9555C12.6403 4.33405 13.4738 3.99121 14.369 3.99121C15.3269 3.99121 16.2374 4.3758 16.9319 5.07433C18.3137 6.46417 18.3667 8.67297 17.0491 9.99776L11.1116 15.9626C10.727 16.3504 10.2091 16.5631 9.65352 16.5631C9.06659 16.5631 8.51018 16.3287 8.08785 15.9039C7.24239 15.0521 7.21589 13.6943 8.02924 12.8754L13.5091 7.37145C13.8222 7.05671 14.3297 7.05511 14.6444 7.36824C14.9583 7.68137 14.9599 8.18961 14.6468 8.50355L9.16776 14.0083C8.97506 14.2026 9.00156 14.5454 9.22718 14.7719C9.3444 14.8899 9.50016 14.9573 9.65352 14.9573C9.74184 14.9573 9.8687 14.9356 9.97308 14.8305L15.9106 8.86566C16.6067 8.16472 16.5545 6.97241 15.7934 6.20643C15.0651 5.47418 13.8294 5.41637 13.1614 6.0876L7.23115 12.0532C6.0316 13.26 6.11029 15.3042 7.40779 16.6089C8.06858 17.2745 8.92769 17.6406 9.82695 17.6406C10.6307 17.6406 11.3758 17.3371 11.9233 16.7863L17.8544 10.8207C18.1667 10.5068 18.675 10.5044 18.9897 10.8175C19.3037 11.1307 19.3053 11.6381 18.9929 11.9528L13.0619 17.9184C12.2108 18.7743 11.0618 19.2465 9.82695 19.2465Z" fill="#E9446A"/>
</svg>
