<svg width="17" height="17" viewBox="0 0 17 17" fill="none" xmlns="http://www.w3.org/2000/svg">
<path fill-rule="evenodd" clip-rule="evenodd" d="M5.2278 6.92381C5.92954 6.92381 6.49907 6.35428 6.49907 5.65254C6.49907 4.95079 5.92954 4.38126 5.2278 4.38126C4.52606 4.38126 3.95653 4.95079 3.95653 5.65254C3.95653 6.35428 4.52606 6.92381 5.2278 6.92381ZM13.7029 14.5514H4.00823L9.94506 9.59771C10.1536 9.42058 10.5315 9.42143 10.7358 9.59686L14.5505 12.8513V13.7039C14.5505 14.1717 14.1708 14.5514 13.7029 14.5514ZM3.53277 2.68624H13.7029C14.1708 2.68624 14.5505 3.06592 14.5505 3.53375V10.6224L11.8359 8.30695C10.9968 7.59334 9.68403 7.59334 8.85262 8.30186L2.68526 13.448V3.53375C2.68526 3.06592 3.06495 2.68624 3.53277 2.68624ZM13.7029 0.991211H3.53277C2.13099 0.991211 0.990234 2.13196 0.990234 3.53375V13.7039C0.990234 15.1057 2.13099 16.2465 3.53277 16.2465H13.7029C15.1047 16.2465 16.2455 15.1057 16.2455 13.7039V3.53375C16.2455 2.13196 15.1047 0.991211 13.7029 0.991211Z" fill="#E9446A"/>
</svg>
