<svg width="20" height="20" viewBox="0 0 20 20" fill="none" xmlns="http://www.w3.org/2000/svg">
<path d="M12.7048 0.0334573C12.5741 0.0865536 12.421 0.237674 12.3638 0.370415C12.2617 0.599137 12.3189 0.907504 12.4965 1.08313C12.617 1.20362 12.7171 1.24242 12.9785 1.27305C13.1071 1.28939 13.2766 1.32002 13.3563 1.34453C14.0588 1.55691 14.5509 2.24308 14.5509 3.00889C14.553 4.2587 13.3052 5.1062 12.2086 4.59974C12.0268 4.51601 11.9227 4.44453 11.743 4.2832C11.5673 4.12187 11.4571 4.07286 11.2835 4.07082C11.1038 4.07082 10.9649 4.13208 10.8362 4.27299C10.6627 4.46496 10.6198 4.75494 10.7321 4.98979C10.8301 5.19605 11.2631 5.54935 11.6409 5.73518C12.0575 5.93736 12.4148 6.01904 12.8845 6.01904C13.6646 6.01904 14.3161 5.74539 14.8797 5.1838C15.4475 4.61608 15.7395 3.93603 15.7701 3.11917C15.8028 2.2247 15.4903 1.43642 14.8573 0.80948C14.3631 0.31936 13.7177 0.0334573 13.05 0.00486708C12.8355 -0.00534391 12.7926 -0.00125933 12.7048 0.0334573Z" fill="#777777"/>
<path d="M9.77219 1.43648C8.88793 1.49366 8.2181 1.61619 7.49517 1.85308C6.74161 2.10018 6.09016 2.41876 5.42237 2.86395C4.86895 3.23358 4.45847 3.57462 3.99286 4.05045C2.5225 5.55552 1.61986 7.52213 1.40952 9.67661L1.39727 9.80935L1.21551 9.93801C0.992918 10.0953 0.651877 10.4445 0.504841 10.665C0.288371 10.9897 0.135209 11.3594 0.0473956 11.7657C-0.0118272 12.0414 -0.0159116 12.6132 0.0371847 12.891C0.286329 14.1592 1.23594 15.0945 2.43877 15.2558L2.62869 15.2803L2.80636 15.5642C4.08271 17.6002 6.11671 19.0277 8.41415 19.5056C9.72318 19.7772 11.1384 19.7282 12.4168 19.3646C14.5202 18.7663 16.3112 17.396 17.5038 15.4723C17.5876 15.3395 17.5896 15.3375 17.6958 15.3232C17.8469 15.3028 18.1634 15.1986 18.3636 15.1047C18.9252 14.8372 19.4275 14.3307 19.7073 13.7487C20.0831 12.9665 20.0974 12.0231 19.7482 11.2266C19.5889 10.8652 19.354 10.5364 19.0559 10.2525L18.8598 10.0687V9.94822C18.8598 9.77259 18.7883 9.17832 18.7271 8.84749C18.5494 7.87747 18.2165 6.92582 17.7611 6.09057C17.5978 5.78833 17.3057 5.31659 17.1934 5.17568C17.0341 4.97146 16.7686 4.88774 16.5338 4.96738C16.3929 5.01435 16.2234 5.16955 16.1642 5.30638C16.0559 5.56165 16.0906 5.74544 16.3153 6.08853C16.542 6.43365 16.6829 6.6828 16.8585 7.0463C17.3588 8.08168 17.6161 9.16403 17.6529 10.3669L17.6652 10.8243L17.8857 10.955C18.4493 11.2899 18.7373 11.7515 18.77 12.3702C18.8067 13.0298 18.4371 13.6629 17.853 13.9407C17.6284 14.0468 17.4732 14.0816 17.1362 14.0979C16.8585 14.1122 16.8524 14.1142 16.8238 14.1653C16.5134 14.7412 16.2295 15.1843 15.9334 15.556C14.7101 17.0938 13.0049 18.0781 11.0996 18.3436C9.54551 18.56 7.89952 18.2374 6.51493 17.445C5.21407 16.7017 4.19503 15.6234 3.45985 14.2123C3.33324 13.9692 3.32711 13.9611 3.27197 13.9713C3.2393 13.9774 3.08818 13.9897 2.93502 13.9958C2.72263 14.006 2.62052 13.9999 2.5082 13.9774C2.1835 13.908 1.94865 13.7773 1.70563 13.5343C1.39522 13.2218 1.24819 12.8889 1.22164 12.4417C1.19509 11.9577 1.38093 11.4778 1.72606 11.1449C1.89351 10.9856 2.04872 10.8897 2.35504 10.763C2.57355 10.6691 2.58376 10.663 2.58376 10.6038C2.58581 10.1953 2.65116 9.51528 2.72672 9.09051C3.07184 7.17904 4.11335 5.4432 5.62046 4.271C6.71302 3.41942 7.971 2.90683 9.35354 2.74959C9.61698 2.71895 10.4318 2.71283 10.8566 2.73938C11.1506 2.75776 11.1568 2.75571 11.2671 2.7067C11.5999 2.55354 11.7327 2.16144 11.5673 1.81836C11.5121 1.70196 11.3467 1.55696 11.2262 1.51816C11.1731 1.50182 11.0302 1.47732 10.9056 1.46711C10.6605 1.4426 9.9519 1.42422 9.77219 1.43648Z" fill="#777777"/>
<path d="M6.12073 8.96799C5.77764 9.05172 5.47336 9.30495 5.31407 9.63578C5.20584 9.86246 5.17725 9.98091 5.17725 10.2219C5.17725 10.9448 5.77356 11.5309 6.46381 11.486C6.77218 11.4656 7.04991 11.3349 7.2623 11.1082C7.49715 10.857 7.61151 10.5772 7.61355 10.2362C7.61559 9.98907 7.58904 9.86042 7.48081 9.63374C7.41342 9.49487 7.36441 9.42748 7.23166 9.29474C7.054 9.11707 6.90083 9.02721 6.67824 8.97003C6.53324 8.93327 6.27185 8.93327 6.12073 8.96799Z" fill="#777777"/>
<path d="M13.3971 8.97818C13.2031 9.03536 13.0315 9.13339 12.8824 9.2743C12.621 9.51936 12.4863 9.83385 12.4822 10.1953C12.4822 10.4404 12.5189 10.6037 12.6272 10.8182C12.7129 10.9938 12.9274 11.2266 13.0887 11.3185C13.7095 11.68 14.4712 11.4431 14.7837 10.7937C14.8327 10.6895 14.8838 10.5547 14.896 10.4955C14.9287 10.3423 14.9226 10.0544 14.8858 9.8992C14.7817 9.45605 14.4079 9.07212 13.977 8.97001C13.8055 8.92917 13.5502 8.93326 13.3971 8.97818Z" fill="#777777"/>
<path d="M5.03648 12.699C4.88331 12.7603 4.74649 12.9012 4.68727 13.0564C4.65051 13.1544 4.64438 13.2055 4.65051 13.3321C4.65868 13.473 4.67093 13.5097 4.77916 13.7201C5.982 16.0747 8.49386 17.3511 11.018 16.8916C12.3821 16.6445 13.6156 15.9032 14.5203 14.7922C14.7449 14.5124 15.041 14.0591 15.1983 13.7446L15.3372 13.4709V13.2933C15.3351 13.1483 15.3269 13.0972 15.2861 13.0135C15.1044 12.6418 14.6469 12.5438 14.3488 12.8113C14.2773 12.8746 14.2181 12.9624 14.1343 13.1238C13.8954 13.5792 13.6381 13.9366 13.2868 14.296C12.8804 14.7126 12.4945 14.9944 11.9921 15.2415C11.5285 15.4682 11.0649 15.607 10.5279 15.6806C10.2991 15.7112 9.70895 15.7112 9.46593 15.6806C8.65519 15.5744 7.91389 15.2762 7.25223 14.7841C7.01125 14.6043 6.61915 14.2265 6.42923 13.9937C6.24544 13.765 5.99834 13.3893 5.87172 13.1442C5.8125 13.0298 5.73285 12.9012 5.69201 12.8562C5.52864 12.6765 5.25907 12.6112 5.03648 12.699Z" fill="#777777"/>
</svg>
