<svg width="15" height="21" viewBox="0 0 15 21" fill="none" xmlns="http://www.w3.org/2000/svg">
<path fill-rule="evenodd" clip-rule="evenodd" d="M8.50881 16.5288V18.6442H10.6496C11.151 18.6442 11.5599 19.053 11.5599 19.5544V19.769C11.5599 20.2694 11.151 20.6782 10.6496 20.6782H4.33396C3.83257 20.6782 3.42373 20.2694 3.42373 19.769V19.5544C3.42373 19.053 3.83257 18.6442 4.33396 18.6442H6.47478V16.5288C3.03014 16.0325 0.372681 13.0709 0.372681 9.49104C0.372681 8.92964 0.827287 8.47402 1.3897 8.47402C1.95211 8.47402 2.40671 8.92964 2.40671 9.49104C2.40671 12.2949 4.68788 14.5761 7.49179 14.5761C10.2957 14.5761 12.5769 12.2949 12.5769 9.49104C12.5769 8.92964 13.0315 8.47402 13.5939 8.47402C14.1563 8.47402 14.6109 8.92964 14.6109 9.49104C14.6109 13.0709 11.9534 16.0325 8.50881 16.5288V16.5288ZM5.45776 4.40596C5.45776 3.28419 6.37003 2.37192 7.49179 2.37192C8.61356 2.37192 9.52583 3.28419 9.52583 4.40596V9.49104C9.52583 10.6128 8.61356 11.5251 7.49179 11.5251C6.37003 11.5251 5.45776 10.6128 5.45776 9.49104V4.40596ZM7.49179 13.5591C9.73533 13.5591 11.5599 11.7346 11.5599 9.49104V4.40596C11.5599 2.16343 9.73533 0.337891 7.49179 0.337891C5.24826 0.337891 3.42373 2.16343 3.42373 4.40596V9.49104C3.42373 11.7346 5.24826 13.5591 7.49179 13.5591V13.5591Z" fill="#E9446A"/>
</svg>
