<svg width="16" height="21" viewBox="0 0 16 21" fill="none" xmlns="http://www.w3.org/2000/svg">
<path fill-rule="evenodd" clip-rule="evenodd" d="M15.9101 19.5318C15.9101 20.1556 15.405 20.6619 14.7801 20.6619C14.1552 20.6619 13.6501 20.1556 13.6501 19.5318C13.6501 16.4164 11.1154 13.8817 7.99997 13.8817C4.88451 13.8817 2.34988 16.4164 2.34988 19.5318C2.34988 20.1556 1.84476 20.6619 1.21986 20.6619C0.594962 20.6619 0.0898438 20.1556 0.0898438 19.5318C0.0898438 15.17 3.63923 11.6217 7.99997 11.6217C12.3607 11.6217 15.9101 15.17 15.9101 19.5318M7.99997 2.58157C9.24638 2.58157 10.26 3.5952 10.26 4.84161C10.26 6.08802 9.24638 7.10164 7.99997 7.10164C6.75356 7.10164 5.73993 6.08802 5.73993 4.84161C5.73993 3.5952 6.75356 2.58157 7.99997 2.58157M7.99997 9.36168C10.4928 9.36168 12.52 7.33443 12.52 4.84161C12.52 2.34879 10.4928 0.321533 7.99997 0.321533C5.50715 0.321533 3.4799 2.34879 3.4799 4.84161C3.4799 7.33443 5.50715 9.36168 7.99997 9.36168" fill="#E9446A"/>
</svg>
