<svg width="16" height="16" viewBox="0 0 16 16" fill="none" xmlns="http://www.w3.org/2000/svg">
<path fill-rule="evenodd" clip-rule="evenodd" d="M12.2042 12.967C12.2042 13.3872 11.8625 13.7297 11.4414 13.7297H3.81381C3.39277 13.7297 3.05105 13.3872 3.05105 12.967V4.57657H12.2042V12.967ZM6.1021 1.77571C6.1021 1.65748 6.26533 1.52552 6.48348 1.52552H8.77176C8.98991 1.52552 9.15315 1.65748 9.15315 1.77571V3.05105H6.1021V1.77571ZM14.4925 3.05105H13.7297H10.6787V1.77571C10.6787 0.796324 9.82361 0 8.77176 0H6.48348C5.43163 0 4.57657 0.796324 4.57657 1.77571V3.05105H1.52552H0.762762C0.343243 3.05105 0 3.39429 0 3.81381C0 4.23333 0.343243 4.57657 0.762762 4.57657H1.52552V12.967C1.52552 14.2286 2.5522 15.2552 3.81381 15.2552H11.4414C12.703 15.2552 13.7297 14.2286 13.7297 12.967V4.57657H14.4925C14.912 4.57657 15.2552 4.23333 15.2552 3.81381C15.2552 3.39429 14.912 3.05105 14.4925 3.05105Z" fill="#E9446A"/>
</svg>
