<svg width="17" height="11" viewBox="0 0 17 11" fill="none" xmlns="http://www.w3.org/2000/svg">
<path fill-rule="evenodd" clip-rule="evenodd" d="M14.72 7.60157L12.5774 5.61839L14.72 3.63597V7.60157ZM10.9061 8.66944C10.9061 9.09048 10.5644 9.4322 10.1434 9.4322H3.27852C2.85748 9.4322 2.51576 9.09048 2.51576 8.66944V2.56734C2.51576 2.14706 2.85748 1.80458 3.27852 1.80458H10.1434C10.5644 1.80458 10.9061 2.14706 10.9061 2.56734V8.66944ZM15.4919 1.91594C15.0144 1.70771 14.4606 1.79847 14.08 2.14935L12.4317 3.67487V2.56734C12.4317 1.30573 11.405 0.279053 10.1434 0.279053H3.27852C2.01691 0.279053 0.990234 1.30573 0.990234 2.56734V8.66944C0.990234 9.93181 2.01691 10.9577 3.27852 10.9577H10.1434C11.405 10.9577 12.4317 9.93181 12.4317 8.66944V7.56267L14.08 9.08743C14.3241 9.31397 14.6406 9.4322 14.9633 9.4322C15.1418 9.4322 15.321 9.39635 15.4919 9.3216C15.9564 9.1187 16.2455 8.68469 16.2455 8.18966V3.04788C16.2455 2.55285 15.9564 2.11883 15.4919 1.91594Z" fill="#E9446A"/>
</svg>
